<svg viewBox="0 0 1200 630" width="1200" height="630" xmlns="http://www.w3.org/2000/svg" role="img">
  <defs>
    <radialGradient id="glow" cx="49.86%" cy="20%" r="90%">
      <stop offset="0%" stop-color="#1B140C"/>
      <stop offset="46%" stop-color="#0A0807"/>
      <stop offset="100%" stop-color="#060504"/>
    </radialGradient>
    <radialGradient id="bloom" cx="50%" cy="50%" r="50%">
      <stop offset="0%" stop-color="#E6B450" stop-opacity="0.55"/>
      <stop offset="55%" stop-color="#E6B450" stop-opacity="0.12"/>
      <stop offset="100%" stop-color="#E6B450" stop-opacity="0"/>
    </radialGradient>
    <linearGradient id="leak" x1="0" y1="0" x2="1" y2="1">
      <stop offset="0%" stop-color="#C98A3A" stop-opacity="0.30"/>
      <stop offset="40%" stop-color="#0A0807" stop-opacity="0.2"/>
      <stop offset="100%" stop-color="#060504" stop-opacity="0.1"/>
    </linearGradient>
    <linearGradient id="vgrain" x1="0" y1="0" x2="0" y2="1">
      <stop offset="0%" stop-color="#C98A3A" stop-opacity="0.22"/>
      <stop offset="60%" stop-color="#0A0807"/>
      <stop offset="100%" stop-color="#060504"/>
    </linearGradient>
    <filter id="grain"><feTurbulence type="fractalNoise" baseFrequency="0.9" numOctaves="2" stitchTiles="stitch"/>
      <feColorMatrix type="saturate" values="0"/></filter>
  </defs>
  <rect x="0" y="0" width="1200" height="630" fill="url(#glow)"/>
  <g transform="rotate(-9 324 285)"><rect x="240" y="175" width="168" height="220" rx="14" fill="#3A2A14" opacity="0.92"/><rect x="240" y="175" width="168" height="220" rx="14" fill="none" stroke="rgba(245,232,210,0.18)" stroke-width="1" opacity="1"/><rect x="254" y="345" width="140" height="36" rx="6" fill="rgba(10,8,7,0.35)" opacity="1"/></g><g transform="rotate(-6 416 295)"><rect x="332" y="185" width="168" height="220" rx="14" fill="#6E4A1E" opacity="0.92"/><rect x="332" y="185" width="168" height="220" rx="14" fill="none" stroke="rgba(245,232,210,0.18)" stroke-width="1" opacity="1"/><rect x="346" y="355" width="140" height="36" rx="6" fill="rgba(10,8,7,0.35)" opacity="1"/></g><g transform="rotate(-3 508 305)"><rect x="424" y="195" width="168" height="220" rx="14" fill="#A9712C" opacity="0.92"/><rect x="424" y="195" width="168" height="220" rx="14" fill="none" stroke="rgba(245,232,210,0.18)" stroke-width="1" opacity="1"/><rect x="438" y="365" width="140" height="36" rx="6" fill="rgba(10,8,7,0.35)" opacity="1"/></g><g transform="rotate(0 600 315)"><rect x="516" y="205" width="168" height="220" rx="14" fill="#C98A3A" opacity="0.92"/><rect x="516" y="205" width="168" height="220" rx="14" fill="none" stroke="rgba(245,232,210,0.18)" stroke-width="1" opacity="1"/><rect x="530" y="375" width="140" height="36" rx="6" fill="rgba(10,8,7,0.35)" opacity="1"/></g><g transform="rotate(3 692 325)"><rect x="608" y="215" width="168" height="220" rx="14" fill="#E6B450" opacity="0.92"/><rect x="608" y="215" width="168" height="220" rx="14" fill="none" stroke="rgba(245,232,210,0.18)" stroke-width="1" opacity="1"/><rect x="622" y="385" width="140" height="36" rx="6" fill="rgba(10,8,7,0.35)" opacity="1"/></g><g transform="rotate(6 784 335)"><rect x="700" y="225" width="168" height="220" rx="14" fill="#F0CF8C" opacity="0.92"/><rect x="700" y="225" width="168" height="220" rx="14" fill="none" stroke="rgba(245,232,210,0.18)" stroke-width="1" opacity="1"/><rect x="714" y="395" width="140" height="36" rx="6" fill="rgba(10,8,7,0.35)" opacity="1"/></g><g transform="rotate(9 876 345)"><rect x="792" y="235" width="168" height="220" rx="14" fill="#F4ECDD" opacity="0.92"/><rect x="792" y="235" width="168" height="220" rx="14" fill="none" stroke="rgba(245,232,210,0.18)" stroke-width="1" opacity="1"/><rect x="806" y="405" width="140" height="36" rx="6" fill="rgba(10,8,7,0.35)" opacity="1"/></g>
  <rect x="0" y="0" width="1200" height="630" filter="url(#grain)" opacity="0.05" style="mix-blend-mode:overlay"/>
  <rect x="14" y="14" width="1172" height="602" rx="20" fill="none" stroke="rgba(245,232,210,0.10)" stroke-width="1"/>
  <g transform="translate(1140 570) scale(0.30)" opacity="0.9"><path d="M50 2 C53 30 70 47 98 50 C70 53 53 70 50 98 C47 70 30 53 2 50 C30 47 47 30 50 2 Z" fill="#E6B450"/></g>
</svg>